<svg width="128" height="48" viewBox="0 0 128 48" fill="none" xmlns="http://www.w3.org/2000/svg">
<path d="M32.895 10.1348C32.199 10.1349 31.6343 10.6994 31.6343 11.3955L31.6343 36.6055C31.6344 37.3015 32.199 37.8661 32.895 37.8662C33.5911 37.8662 34.1557 37.3016 34.1558 36.6055L34.1558 11.3955C34.1558 10.6993 33.5912 10.1348 32.895 10.1348ZM16.1509 25.5762C15.5966 25.5762 15.1184 25.5758 14.7261 25.6113C14.3112 25.6489 13.9004 25.7326 13.5132 25.9561C12.6885 26.4322 12.3349 27.166 12.1929 27.8633C12.0833 28.4015 12.0908 29.224 12.0952 29.6729C12.0908 30.1217 12.0833 30.9434 12.1929 31.4814C12.3349 32.1788 12.6885 32.9135 13.5132 33.3896C13.9003 33.613 14.3113 33.6958 14.7261 33.7334C15.1184 33.7689 15.5966 33.7696 16.1509 33.7695H25.0552C25.6095 33.7696 26.0886 33.769 26.481 33.7334C26.8957 33.6958 27.3067 33.6131 27.6938 33.3896C28.5186 32.9135 28.8721 32.1788 29.0142 31.4814C29.1237 30.9434 29.1162 30.1217 29.1118 29.6729C29.1162 29.224 29.1238 28.4015 29.0142 27.8633C28.8722 27.1661 28.5183 26.4322 27.6938 25.9561C27.3067 25.7326 26.8957 25.649 26.481 25.6113C26.0886 25.5758 25.6095 25.5762 25.0552 25.5762L16.1509 25.5762ZM23.7134 14.2314C23.1592 14.2314 22.6809 14.231 22.2886 14.2666C21.8738 14.3042 21.4628 14.3878 21.0757 14.6113C20.2512 15.0874 19.8974 15.8213 19.7554 16.5186C19.6458 17.0567 19.6533 17.8793 19.6577 18.3281C19.6533 18.7769 19.6458 19.5986 19.7554 20.1367C19.8974 20.834 20.251 21.5688 21.0757 22.0449C21.4628 22.2684 21.8738 22.351 22.2886 22.3887C22.6809 22.4242 23.1592 22.4248 23.7134 22.4248H25.0552C25.6095 22.4248 26.0886 22.4242 26.481 22.3887C26.8957 22.351 27.3067 22.2684 27.6938 22.0449C28.5185 21.5688 28.8721 20.834 29.0142 20.1367C29.1237 19.5986 29.1162 18.7769 29.1118 18.3281C29.1162 17.8793 29.1238 17.0567 29.0142 16.5186C28.8721 15.8214 28.5183 15.0875 27.6938 14.6113C27.3067 14.3878 26.8958 14.3042 26.481 14.2666C26.0886 14.231 25.6095 14.2314 25.0552 14.2314H23.7134Z" fill="#14F195"/>
<path d="M44.4567 21H41.4159V10.1631H47.7401C50.603 10.1631 52.1073 11.36 52.1073 13.4789C52.1073 15.1933 51.25 16.2123 49.1797 16.4711V16.6329C50.2957 16.924 50.6515 17.4578 51.0559 18.2827L52.3984 21H48.8885L47.5946 18.3474C47.2064 17.5387 46.8829 17.3122 45.7021 17.3122H44.4567V21ZM44.4567 12.8966V15.0478H47.7078C48.5974 15.0478 48.9209 14.886 48.9209 13.9641C48.9209 13.1068 48.5974 12.8966 47.7078 12.8966H44.4567ZM59.5149 21H56.4741V12.8966H52.6408V10.1631H63.3321V12.8966H59.5149V21ZM73.3669 21H64.0665V10.1631H67.1073V18.2665H73.3669V21ZM78.8767 21.3235H75.6256L81.4485 9.83959H84.6995L78.8767 21.3235ZM96.3018 21H87.0015V10.1631H90.0423V18.2665H96.3018V21ZM103.742 21H100.701V12.8966H96.8679V10.1631H107.559V12.8966H103.742V21ZM111.335 21H108.294V10.1631H114.618C117.481 10.1631 118.985 11.36 118.985 13.4789C118.985 15.1933 118.128 16.2123 116.057 16.4711V16.6329C117.174 16.924 117.529 17.4578 117.934 18.2827L119.276 21H115.766L114.472 18.3474C114.084 17.5387 113.761 17.3122 112.58 17.3122H111.335V21ZM111.335 12.8966V15.0478H114.586C115.475 15.0478 115.799 14.886 115.799 13.9641C115.799 13.1068 115.475 12.8966 114.586 12.8966H111.335ZM44.4567 37H41.4159V26.1631H45.5404L47.5299 30.6596L48.5974 33.4578H48.8077L49.8266 30.6596L51.7191 26.1631H55.8436V37H52.8028V32.5197L52.916 30.7081H52.7057L52.0911 32.5197L50.4736 36.353H46.7858L45.1684 32.5197L44.5538 30.7081H44.3435L44.4567 32.5197V37ZM59.5823 37H56.1695L60.8439 26.1631H65.1948L69.8854 37H66.3917L65.5668 34.9944H60.4234L59.5823 37ZM62.2025 30.7405L61.5717 32.2609H64.4508L63.82 30.7405L63.1083 28.9127H62.8981L62.2025 30.7405ZM75.4677 37.1617C72.1519 37.1617 70.1301 35.981 70.1301 33.2313V33.1343H73.1709V33.474C73.1709 34.2018 73.4297 34.3959 75.4677 34.3959C77.3116 34.3959 77.5057 34.2503 77.5057 33.7651C77.5057 33.3769 77.2954 33.2152 76.4058 33.1019L73.0091 32.6491C70.9873 32.3741 69.9683 31.2904 69.9683 29.5435C69.9683 27.8129 71.3108 26.0013 75.2251 26.0013C78.6702 26.0013 80.32 27.5056 80.32 29.9317V30.0288H77.2792V29.7862C77.2792 29.0098 76.9396 28.751 74.9016 28.751C73.3488 28.751 73.0091 28.9613 73.0091 29.4303C73.0091 29.77 73.2032 29.9317 73.7855 30.0126L77.1822 30.514C79.8348 30.9022 80.5465 32.2609 80.5465 33.6519C80.5465 35.5119 79.1231 37.1617 75.4677 37.1617ZM87.8993 37H84.8585V28.8966H81.0251V26.1631H91.7165V28.8966H87.8993V37ZM102.075 37H92.4509V26.1631H102.075V28.8966H95.4917V30.1905H101.832V32.9078H95.4917V34.2665H102.075V37ZM105.98 37H102.939V26.1631H109.263C112.126 26.1631 113.63 27.36 113.63 29.4789C113.63 31.1933 112.773 32.2123 110.703 32.4711V32.6329C111.819 32.924 112.175 33.4578 112.579 34.2827L113.922 37H110.412L109.118 34.3474C108.73 33.5387 108.406 33.3122 107.225 33.3122H105.98V37ZM105.98 28.8966V31.0478H109.231C110.121 31.0478 110.444 30.886 110.444 29.9641C110.444 29.1068 110.121 28.8966 109.231 28.8966H105.98Z" fill="url(#paint0_linear_16307_9151)"/>
<defs>
<linearGradient id="paint0_linear_16307_9151" x1="80.4307" y1="-16.5882" x2="80.4307" y2="50.5455" gradientUnits="userSpaceOnUse">
<stop offset="0.682692" stop-color="white"/>
<stop offset="1" stop-color="white" stop-opacity="0"/>
</linearGradient>
</defs>
</svg>
